<svg viewBox="0 0 20 20" xmlns="http://www.w3.org/2000/svg">
<path d="M5.83334 18.333C5.83334 18.333 4.79167 18.333 4.79167 17.2913C4.79167 16.2497 5.83334 13.1247 10 13.1247C14.1667 13.1247 15.2083 16.2497 15.2083 17.2913C15.2083 18.333 14.1667 18.333 14.1667 18.333H5.83334ZM10 12.1351C10.6907 12.1351 11.3531 11.8607 11.8414 11.3723C12.3298 10.884 12.6042 10.2216 12.6042 9.53092C12.6042 8.84026 12.3298 8.17788 11.8414 7.6895C11.3531 7.20112 10.6907 6.92676 10 6.92676C9.30934 6.92676 8.64696 7.20112 8.15858 7.6895C7.67021 8.17788 7.39584 8.84026 7.39584 9.53092C7.39584 10.2216 7.67021 10.884 8.15858 11.3723C8.64696 11.8607 9.30934 12.1351 10 12.1351Z" />
<path d="M3.75001 2.70801C3.19747 2.70801 2.66757 2.9275 2.27687 3.3182C1.88617 3.7089 1.66667 4.23881 1.66667 4.79134L1.66667 14.6872C1.66667 15.1016 1.83129 15.499 2.12432 15.792C2.41734 16.0851 2.81477 16.2497 3.22917 16.2497H3.90938C4.12718 15.4842 4.50574 14.7739 5.0198 14.1663H2.70834V4.79134C2.70834 4.51507 2.81809 4.25012 3.01344 4.05477C3.20879 3.85942 3.47374 3.74967 3.75001 3.74967H16.25C16.5263 3.74967 16.7912 3.85942 16.9866 4.05477C17.1819 4.25012 17.2917 4.51507 17.2917 4.79134V14.1663H14.9802C15.5573 14.8476 15.9073 15.5965 16.0906 16.2497H16.7708C17.1852 16.2497 17.5827 16.0851 17.8757 15.792C18.1687 15.499 18.3333 15.1016 18.3333 14.6872V4.79134C18.3333 4.23881 18.1138 3.7089 17.7231 3.3182C17.3324 2.9275 16.8025 2.70801 16.25 2.70801H3.75001Z" />
</svg>
