<svg viewBox="0 0 20 20" xmlns="http://www.w3.org/2000/svg">
<path d="M8.95832 16.25C8.95832 16.25 7.91666 16.25 7.91666 15.2083C7.91666 14.1667 8.95832 11.0417 13.125 11.0417C17.2917 11.0417 18.3333 14.1667 18.3333 15.2083C18.3333 16.25 17.2917 16.25 17.2917 16.25H8.95832ZM13.125 10C13.9538 10 14.7486 9.67076 15.3347 9.08471C15.9207 8.49866 16.25 7.7038 16.25 6.875C16.25 6.0462 15.9207 5.25134 15.3347 4.66529C14.7486 4.07924 13.9538 3.75 13.125 3.75C12.2962 3.75 11.5013 4.07924 10.9153 4.66529C10.3292 5.25134 9.99999 6.0462 9.99999 6.875C9.99999 7.7038 10.3292 8.49866 10.9153 9.08471C11.5013 9.67076 12.2962 10 13.125 10Z" />
<path fill-rule="evenodd" clip-rule="evenodd" d="M7.09999 16.2498C6.94557 15.9246 6.86856 15.5681 6.87499 15.2081C6.87499 13.7967 7.58332 12.3435 8.89166 11.3331C8.23863 11.1319 7.55827 11.0335 6.87499 11.0415C2.70832 11.0415 1.66666 14.1665 1.66666 15.2081C1.66666 16.2498 2.70832 16.2498 2.70832 16.2498H7.09999Z" />
<path d="M6.35417 10.0003C7.04483 10.0003 7.70721 9.72596 8.19559 9.23758C8.68397 8.74921 8.95833 8.08683 8.95833 7.39616C8.95833 6.70549 8.68397 6.04311 8.19559 5.55473C7.70721 5.06636 7.04483 4.79199 6.35417 4.79199C5.6635 4.79199 5.00112 5.06636 4.51274 5.55473C4.02437 6.04311 3.75 6.70549 3.75 7.39616C3.75 8.08683 4.02437 8.74921 4.51274 9.23758C5.00112 9.72596 5.6635 10.0003 6.35417 10.0003Z" />
</svg>
