<svg viewBox="0 0 20 20" xmlns="http://www.w3.org/2000/svg">
<path d="M10 6.35417C10.4121 6.35417 10.8148 6.23198 11.1574 6.00306C11.5 5.77414 11.7671 5.44877 11.9248 5.06809C12.0824 4.68741 12.1237 4.26852 12.0433 3.8644C11.9629 3.46027 11.7645 3.08905 11.4731 2.7977C11.1818 2.50634 10.8106 2.30792 10.4064 2.22753C10.0023 2.14715 9.58343 2.1884 9.20275 2.34609C8.82207 2.50377 8.4967 2.77079 8.26778 3.1134C8.03886 3.456 7.91667 3.85879 7.91667 4.27083C7.91729 4.82318 8.13699 5.35272 8.52755 5.74329C8.91812 6.13386 9.44766 6.35355 10 6.35417ZM10 3.22917C10.206 3.22917 10.4074 3.29026 10.5787 3.40472C10.75 3.51918 10.8835 3.68187 10.9624 3.87221C11.0412 4.06255 11.0619 4.27199 11.0217 4.47405C10.9815 4.67612 10.8823 4.86172 10.7366 5.0074C10.5909 5.15308 10.4053 5.25229 10.2032 5.29249C10.0012 5.33268 9.79172 5.31205 9.60138 5.23321C9.41104 5.15437 9.24835 5.02085 9.13389 4.84955C9.01943 4.67825 8.95834 4.47686 8.95834 4.27083C8.95865 3.99466 9.0685 3.72989 9.26378 3.53461C9.45906 3.33932 9.72383 3.22948 10 3.22917ZM10 13.6458C9.58796 13.6458 9.18517 13.768 8.84257 13.9969C8.49997 14.2259 8.23294 14.5512 8.07526 14.9319C7.91757 15.3126 7.87632 15.7315 7.9567 16.1356C8.03709 16.5397 8.23551 16.9109 8.52687 17.2023C8.81823 17.4937 9.18944 17.6921 9.59357 17.7725C9.9977 17.8529 10.4166 17.8116 10.7973 17.6539C11.1779 17.4962 11.5033 17.2292 11.7322 16.8866C11.9612 16.544 12.0833 16.1412 12.0833 15.7292C12.0827 15.1768 11.863 14.6473 11.4725 14.2567C11.0819 13.8661 10.5524 13.6465 10 13.6458ZM10 16.7708C9.79398 16.7708 9.59259 16.7097 9.42129 16.5953C9.24999 16.4808 9.11647 16.3181 9.03763 16.1278C8.95879 15.9375 8.93816 15.728 8.97835 15.5259C9.01855 15.3239 9.11776 15.1383 9.26344 14.9926C9.40912 14.8469 9.59472 14.7477 9.79679 14.7075C9.99885 14.6673 10.2083 14.688 10.3986 14.7668C10.589 14.8456 10.7517 14.9791 10.8661 15.1504C10.9806 15.3218 11.0417 15.5231 11.0417 15.7292C11.0414 16.0053 10.9315 16.2701 10.7362 16.4654C10.5409 16.6607 10.2762 16.7705 10 16.7708ZM10 7.91667C9.58796 7.91667 9.18517 8.03885 8.84257 8.26777C8.49997 8.49669 8.23294 8.82206 8.07526 9.20274C7.91757 9.58342 7.87632 10.0023 7.9567 10.4064C8.03709 10.8106 8.23551 11.1818 8.52687 11.4731C8.81823 11.7645 9.18944 11.9629 9.59357 12.0433C9.9977 12.1237 10.4166 12.0824 10.7973 11.9248C11.1779 11.7671 11.5033 11.5 11.7322 11.1574C11.9612 10.8148 12.0833 10.412 12.0833 10C12.0827 9.44766 11.863 8.91811 11.4725 8.52755C11.0819 8.13698 10.5524 7.91729 10 7.91667ZM10 11.0417C9.79398 11.0417 9.59259 10.9806 9.42129 10.8661C9.24999 10.7517 9.11647 10.589 9.03763 10.3986C8.95879 10.2083 8.93816 9.99885 8.97835 9.79678C9.01855 9.59472 9.11776 9.40911 9.26344 9.26343C9.40912 9.11775 9.59472 9.01854 9.79679 8.97835C9.99885 8.93816 10.2083 8.95879 10.3986 9.03763C10.589 9.11647 10.7517 9.24998 10.8661 9.42128C10.9806 9.59258 11.0417 9.79398 11.0417 10C11.0414 10.2762 10.9315 10.5409 10.7362 10.7362C10.5409 10.9315 10.2762 11.0414 10 11.0417Z" />
</svg>
