<svg viewBox="0 0 20 20" xmlns="http://www.w3.org/2000/svg">
<path d="M12.2886 8.78874C12.288 9.10973 12.1602 9.41742 11.9333 9.64439C11.7063 9.87137 11.3986 9.99912 11.0776 9.99968H8.78907V7.5778H11.0776C11.3986 7.57835 11.7063 7.70611 11.9333 7.93308C12.1602 8.16006 12.288 8.46775 12.2886 8.78874ZM18.0729 9.99968C18.0729 14.4596 14.4594 18.0726 10 18.0726C5.54064 18.0726 1.92709 14.4591 1.92709 9.99968C1.92709 5.53978 5.54064 1.92676 10 1.92676C14.4594 1.92676 18.0729 5.5403 18.0729 9.99968ZM13.9031 8.78874C13.9027 8.03949 13.6049 7.32105 13.0751 6.79125C12.5453 6.26145 11.8269 5.96363 11.0776 5.96322H7.17449V14.0361H8.78907V11.6143H11.0776C11.8269 11.6138 12.5453 11.316 13.0751 10.7862C13.6049 10.2564 13.9027 9.53799 13.9031 8.78874Z" />
</svg>
