<svg viewBox="0 0 20 20"  xmlns="http://www.w3.org/2000/svg">
<path d="M14.9145 12.5641H5.09615C4.97863 12.5641 4.88247 12.6603 4.88247 12.7778L4.8798 14.0599C4.8798 14.1774 4.97596 14.2735 5.09348 14.2735H14.9145C15.032 14.2735 15.1282 14.1774 15.1282 14.0599V12.7778C15.1282 12.6603 15.032 12.5641 14.9145 12.5641ZM14.9145 15.1282H5.08814C4.97062 15.1282 4.87446 15.2244 4.87446 15.3419L4.87179 16.624C4.87179 16.7415 4.96794 16.8376 5.08547 16.8376H14.9145C15.032 16.8376 15.1282 16.7415 15.1282 16.624V15.3419C15.1282 15.2244 15.032 15.1282 14.9145 15.1282ZM14.9145 10H5.10149C4.98397 10 4.88782 10.0962 4.88782 10.2137L4.88515 11.4958C4.88515 11.6133 4.9813 11.7094 5.09882 11.7094H14.9145C15.032 11.7094 15.1282 11.6133 15.1282 11.4958V10.2137C15.1282 10.0962 15.032 10 14.9145 10ZM17.7591 6.28742L10.4914 3.26124C10.3352 3.19644 10.1678 3.16309 9.99866 3.16309C9.82954 3.16309 9.66208 3.19644 9.50587 3.26124L2.24092 6.28742C1.76549 6.48774 1.45299 6.95248 1.45299 7.47065V16.624C1.45299 16.7415 1.54914 16.8376 1.66666 16.8376H3.80342C3.92094 16.8376 4.01709 16.7415 4.01709 16.624V10C4.01709 9.52994 4.40705 9.14533 4.88782 9.14533H15.1122C15.5929 9.14533 15.9829 9.52994 15.9829 10V16.624C15.9829 16.7415 16.0791 16.8376 16.1966 16.8376H18.3333C18.4509 16.8376 18.547 16.7415 18.547 16.624V7.47065C18.547 6.95248 18.2345 6.48774 17.7591 6.28742Z" />
</svg>
