<svg viewBox="0 0 20 20" xmlns="http://www.w3.org/2000/svg">
<g clip-path="url(#clip0_227_23)">
<path d="M9.26217 2.53451L6.033 7.81229C5.6771 8.3852 6.09376 9.13173 6.77085 9.13173H13.2205C13.8976 9.13173 14.3142 8.3852 13.9583 7.81229L10.7379 2.53451C10.6611 2.40746 10.5529 2.30237 10.4236 2.22943C10.2944 2.15649 10.1484 2.11816 10 2.11816C9.85159 2.11816 9.70568 2.15649 9.57641 2.22943C9.44714 2.30237 9.3389 2.40746 9.26217 2.53451Z" />
<path d="M14.7743 18.6807C16.9317 18.6807 18.6805 16.9318 18.6805 14.7744C18.6805 12.6171 16.9317 10.8682 14.7743 10.8682C12.6169 10.8682 10.868 12.6171 10.868 14.7744C10.868 16.9318 12.6169 18.6807 14.7743 18.6807Z"/>
<path d="M3.05556 18.2462H8.26389C8.74132 18.2462 9.13194 17.8556 9.13194 17.3781V12.1698C9.13194 11.6924 8.74132 11.3018 8.26389 11.3018H3.05556C2.57812 11.3018 2.1875 11.6924 2.1875 12.1698V17.3781C2.1875 17.8556 2.57812 18.2462 3.05556 18.2462Z" />
</g>
<defs>
<clipPath id="clip0_227_23">
</clipPath>
</defs>
</svg>
