<svg viewBox="0 0 20 20" xmlns="http://www.w3.org/2000/svg">
<g clip-path="url(#clip0_227_2)">
<path d="M3.92361 3.92339H5.65972V6.52756H14.3403V3.92339H16.0764V8.26367H17.8125V3.92339C17.8125 2.96853 17.0312 2.18728 16.0764 2.18728H12.4479C12.0833 1.18034 11.1285 0.451172 10 0.451172C8.87153 0.451172 7.91667 1.18034 7.55208 2.18728H3.92361C2.96875 2.18728 2.1875 2.96853 2.1875 3.92339V16.0762C2.1875 17.031 2.96875 17.8123 3.92361 17.8123H9.13194V16.0762H3.92361V3.92339ZM10 2.18728C10.4774 2.18728 10.8681 2.57791 10.8681 3.05534C10.8681 3.53277 10.4774 3.92339 10 3.92339C9.52257 3.92339 9.13194 3.53277 9.13194 3.05534C9.13194 2.57791 9.52257 2.18728 10 2.18728Z" />
<path d="M17.8125 9.56641L13.0469 14.3407L10.434 11.7365L9.13196 13.0386L13.0469 16.9449L19.1146 10.8685L17.8125 9.56641Z" />
</g>
<defs>
<clipPath id="clip0_227_2">
<rect width="20" height="20" />
</clipPath>
</defs>
</svg>
